<svg width="21" height="21" viewBox="0 0 21 21" fill="none" xmlns="http://www.w3.org/2000/svg">
<g clip-path="url(#clip0_1_11427)">
<path d="M20.5023 2.57494C20.5044 2.17183 20.3558 1.78249 20.0856 1.48328C19.8358 1.33897 19.5593 1.24684 19.2728 1.21246C18.9863 1.17809 18.6959 1.20218 18.419 1.28328C17.4021 1.50757 16.3979 1.78574 15.4106 2.11661C14.9023 2.26661 14.4023 2.44161 13.9106 2.63328C13.1773 2.90828 12.4606 3.22494 11.7356 3.54161C10.4016 4.1242 9.0997 4.77792 7.83564 5.49994C6.56736 6.21385 5.37267 7.05124 4.26897 7.99994L1.41064 10.5583L0.752306 11.2166C0.67109 11.3018 0.60108 11.397 0.543972 11.4999C0.517895 11.5727 0.517895 11.6522 0.543972 11.7249C0.561047 11.8164 0.600391 11.9023 0.658527 11.975C0.716663 12.0476 0.791802 12.1049 0.877306 12.1416C1.19927 12.2515 1.5371 12.3078 1.87731 12.3083C2.24397 12.3083 2.89397 12.3083 3.45231 12.3916C3.73468 12.3831 4.01645 12.4226 4.28564 12.5083L4.44397 14.3666C4.49397 14.8999 4.51897 15.3166 4.51897 15.7083C4.51897 16.3333 4.43564 17.4166 4.43564 18.2666C4.43564 18.3418 4.46549 18.4138 4.51863 18.467C4.57176 18.5201 4.64383 18.5499 4.71897 18.5499C4.79412 18.5499 4.86618 18.5201 4.91932 18.467C4.97245 18.4138 5.00231 18.3418 5.00231 18.2666C5.00231 17.4333 5.11064 16.3333 5.11897 15.7083C5.11897 15.2999 5.11897 14.8749 5.06064 14.3166C5.00231 13.7583 5.00231 13.0583 4.93564 12.6499C4.86897 12.2416 4.86064 12.0166 3.81897 11.8166C3.20231 11.7416 2.35231 11.6999 1.89397 11.6749L1.43564 11.6083L1.91897 11.1333L4.79397 8.63328C5.85817 7.70929 7.0142 6.89671 8.24397 6.20828C9.48709 5.53775 10.7638 4.9314 12.069 4.39161C12.7773 4.09161 13.494 3.79994 14.2106 3.55828C15.7354 2.99365 17.3086 2.56966 18.9106 2.29161C19.6606 2.61661 19.5523 2.89994 19.5356 3.12494C19.5046 3.5456 19.4291 3.9618 19.3106 4.36661L18.2356 7.99994C18.019 8.72494 17.7856 9.39994 17.544 10.0583C16.9523 11.6499 16.3023 13.1416 15.7023 14.8666C15.5617 15.2581 15.3947 15.6395 15.2023 16.0083C14.894 16.5916 14.544 17.1499 14.219 17.6749C14.1273 17.8447 14.0214 18.0064 13.9023 18.1583L13.819 18.2583L13.769 18.1833L12.9356 16.8749C12.5247 16.3112 12.0853 15.7688 11.619 15.2499C11.1513 14.7266 10.6533 14.2313 10.1273 13.7666C9.76897 13.4666 8.76064 12.6333 8.46064 13.2333C8.37731 13.3416 8.28564 13.5499 8.23564 13.6083L7.26064 15.0249L6.27731 16.7666C5.92731 17.3749 5.51064 17.9499 5.13564 18.5583C4.97731 18.8249 4.81897 19.0999 4.68564 19.3916C4.65698 19.4513 4.65317 19.5199 4.67505 19.5824C4.69692 19.6449 4.74268 19.6962 4.80231 19.7249C4.80231 19.7249 5.03564 19.9166 5.37731 19.6583C5.71897 19.3999 5.81897 19.3333 6.01064 19.1833C6.20231 19.0333 6.64397 18.7249 6.95231 18.5083C7.26064 18.2916 7.51064 18.1333 7.78564 17.9416L9.05231 17.0583C9.71897 16.5833 10.3606 16.0916 10.9856 15.5666L11.1273 15.7249C11.5773 16.2499 12.0023 16.7999 12.369 17.3166L13.119 18.5999C13.1953 18.742 13.2816 18.8784 13.3773 19.0083C13.425 19.0588 13.4835 19.0977 13.5485 19.1223C13.6135 19.1468 13.6832 19.1563 13.7523 19.1499C13.9498 19.1175 14.1344 19.0309 14.2856 18.8999C14.5225 18.6703 14.7272 18.4096 14.894 18.1249C15.2356 17.5999 15.6106 17.0249 15.9356 16.4583C16.1595 16.0601 16.3517 15.6449 16.5106 15.2166C17.1273 13.4999 17.8106 12.0249 18.4106 10.4499C18.6773 9.76661 18.919 9.07494 19.144 8.33328L20.2273 4.66661C20.4294 3.9884 20.5222 3.28234 20.5023 2.57494ZM8.10231 16.5583C7.8146 16.7441 7.53647 16.9444 7.26897 17.1583C6.98564 17.3833 6.71897 17.6166 6.43564 17.8666L5.81064 18.5083C6.13564 18.0166 6.47731 17.5416 6.77731 17.0416L7.81064 15.3749L8.76897 13.9999C8.81064 13.9499 8.93564 13.7416 8.98564 13.6583C9.03564 13.5749 9.1523 13.7666 9.24397 13.8333C9.33564 13.8999 9.61897 14.1749 9.72731 14.2666C10.0106 14.5249 10.294 14.8166 10.5606 15.0999C9.76897 15.6249 8.91064 16.0499 8.10231 16.5583Z" fill="#192615"/>
<path d="M11.9187 8.55853C11.477 9.04186 11.0853 9.55019 10.652 10.0752C10.2187 10.6002 9.71868 11.2752 9.29368 11.9085C9.20201 12.0419 9.11868 12.1835 9.03535 12.3169C8.81868 12.9752 9.12701 12.8752 9.70201 12.3835L9.77701 12.2669C10.2437 11.6752 10.7687 11.1169 11.2603 10.6002C12.052 9.69186 12.927 8.85853 13.7603 8.03353L15.6103 6.29186C16.5187 5.45853 17.427 4.57519 18.3187 3.70019C19.6687 1.33353 15.9937 4.66686 14.0103 6.47519C13.2853 7.16686 12.5853 7.82519 11.9187 8.55853Z" fill="#192615"/>
<path d="M11.5854 6.0082C10.4271 6.79153 9.3104 7.62486 8.19373 8.50819L5.5604 10.6499C5.39374 10.7999 5.20207 10.9582 5.0104 11.1165C4.6104 11.6165 4.66874 11.7999 5.57707 11.3999C5.7104 11.3082 5.84374 11.2165 5.95207 11.1249L8.70207 9.1582L15.5521 4.43319C16.2271 3.97486 16.8771 3.51653 17.5521 3.07486C17.7104 2.51653 16.5271 2.90819 15.5521 3.48319L15.1104 3.74986C13.9271 4.49153 12.7354 5.21653 11.5854 6.0082Z" fill="#192615"/>
</g>
<defs>
<clipPath id="clip0_1_11427">
<rect width="20" height="20" fill="white" transform="translate(0.5 0.5)"/>
</clipPath>
</defs>
</svg>
