<svg width="16" height="16" viewBox="0 0 16 16" fill="none" xmlns="http://www.w3.org/2000/svg">
<g clip-path="url(#clip0_57_1169)">
<path fill-rule="evenodd" clip-rule="evenodd" d="M0 8C0 11.96 2.88 15.24 6.68 15.92L6.72813 15.8806C6.72541 15.8801 6.72269 15.8796 6.71997 15.8791V10.2391H4.71997V7.99914H6.71997V6.23914C6.71997 4.23914 7.99997 3.11914 9.83997 3.11914C10.4 3.11914 11.04 3.19914 11.6 3.27914V5.31914H10.56C9.59997 5.31914 9.35997 5.79914 9.35997 6.43914V7.99914H11.48L11.12 10.2391H9.35997V15.8791C9.33532 15.8836 9.31068 15.888 9.28603 15.8922L9.32 15.92C13.12 15.24 16 11.96 16 8C16 3.6 12.4 0 8 0C3.6 0 0 3.6 0 8Z" fill="#192615"/>
</g>
<defs>
<clipPath id="clip0_57_1169">
<rect width="16" height="16" fill="white"/>
</clipPath>
</defs>
</svg>
