<svg width="16" height="16" viewBox="0 0 16 16" fill="none" xmlns="http://www.w3.org/2000/svg">
<g clip-path="url(#clip0_57_1164)">
<path d="M3.724 5.14746H0.511971C0.369416 5.14746 0.253906 5.26302 0.253906 5.40553V15.7244C0.253906 15.8669 0.369416 15.9825 0.511971 15.9825H3.724C3.86655 15.9825 3.98206 15.8669 3.98206 15.7244V5.40553C3.98206 5.26302 3.86655 5.14746 3.724 5.14746Z" fill="#192615"/>
<path d="M2.11954 0.0175781C0.950813 0.0175781 0 0.967359 0 2.13479C0 3.30274 0.950813 4.25288 2.11954 4.25288C3.28733 4.25288 4.23737 3.30269 4.23737 2.13479C4.23742 0.967359 3.28733 0.0175781 2.11954 0.0175781Z" fill="#192615"/>
<path d="M11.8943 4.89062C10.6043 4.89062 9.65061 5.44521 9.07219 6.07535V5.40515C9.07219 5.26265 8.95668 5.14709 8.81412 5.14709H5.73804C5.59549 5.14709 5.47998 5.26265 5.47998 5.40515V15.724C5.47998 15.8666 5.59549 15.9821 5.73804 15.9821H8.94305C9.08561 15.9821 9.20112 15.8666 9.20112 15.724V10.6186C9.20112 8.89816 9.66842 8.22792 10.8677 8.22792C12.1738 8.22792 12.2776 9.30239 12.2776 10.7071V15.7241C12.2776 15.8666 12.3931 15.9821 12.5357 15.9821H15.7419C15.8844 15.9821 15.9999 15.8666 15.9999 15.7241V10.064C15.9999 7.5058 15.5121 4.89062 11.8943 4.89062Z" fill="#192615"/>
</g>
<defs>
<clipPath id="clip0_57_1164">
<rect width="16" height="16" fill="white"/>
</clipPath>
</defs>
</svg>
