<svg width="208" height="20" viewBox="0 0 208 20" fill="none" xmlns="http://www.w3.org/2000/svg">
<path d="M206.735 17.0862C206.75 17.4013 206.9 17.677 207.184 17.9133C207.467 18.1339 207.609 18.2993 207.609 18.4096V18.5041C207.609 18.6931 207.451 18.7877 207.136 18.7877H204.301C203.985 18.7877 203.828 18.6931 203.828 18.5041V18.4096C203.828 18.2993 203.97 18.1339 204.253 17.9133C204.537 17.6927 204.671 17.4249 204.655 17.1098L204.419 12.5017C204.34 10.9578 204.048 9.83919 203.544 9.146C203.056 8.45281 202.363 8.10622 201.465 8.10622C200.709 8.10622 200.055 8.40555 199.503 9.00421C198.968 9.60288 198.684 10.3433 198.653 11.2256C198.716 11.5407 198.747 11.9266 198.747 12.3835V17.1098C198.747 17.4249 198.881 17.6927 199.149 17.9133C199.432 18.1339 199.574 18.2993 199.574 18.4096V18.5041C199.574 18.6931 199.425 18.7877 199.125 18.7877H196.337C196.006 18.7877 195.84 18.6931 195.84 18.5041V18.4096C195.84 18.2993 195.974 18.1339 196.242 17.9133C196.526 17.6927 196.668 17.4249 196.668 17.1098V12.2654C196.668 10.9893 196.384 9.98098 195.817 9.24053C195.265 8.48432 194.572 8.10622 193.737 8.10622C192.918 8.10622 192.233 8.41343 191.681 9.02785C191.13 9.64227 190.838 10.3985 190.807 11.2965L190.831 17.1098C190.831 17.4249 190.98 17.6927 191.28 17.9133C191.595 18.1339 191.752 18.2993 191.752 18.4096V18.5041C191.752 18.6931 191.595 18.7877 191.28 18.7877H188.326C188.01 18.7877 187.853 18.6931 187.853 18.5041V18.4096C187.853 18.2993 188.003 18.1339 188.302 17.9133C188.601 17.6927 188.751 17.4249 188.751 17.1098V9.94948C188.751 9.68165 188.672 9.46109 188.515 9.28779C188.357 9.11449 188.2 8.98058 188.042 8.88606C187.884 8.77578 187.806 8.6655 187.806 8.55521V8.48432C187.806 8.34253 187.924 8.22437 188.16 8.12985L190.003 7.27911C190.224 7.16883 190.389 7.15308 190.5 7.23185C190.626 7.31062 190.689 7.44453 190.689 7.63359V9.31142C191.035 8.6655 191.516 8.15348 192.13 7.77537C192.76 7.38152 193.446 7.18459 194.186 7.18459C195.068 7.18459 195.864 7.41302 196.573 7.8699C197.298 8.31102 197.849 8.94907 198.227 9.78405C198.527 8.98058 199.015 8.35041 199.692 7.89353C200.37 7.4209 201.142 7.18459 202.008 7.18459C203.284 7.18459 204.316 7.61783 205.104 8.48432C205.907 9.33506 206.364 10.6899 206.475 12.5489L206.735 17.0862Z" fill="#192615"/>
<path d="M180.471 18.9994C178.643 18.9994 177.154 18.4086 176.004 17.227C174.87 16.0297 174.303 14.596 174.303 12.9261C174.303 11.2876 174.854 9.92485 175.957 8.8378C177.06 7.735 178.423 7.18359 180.045 7.18359C181.794 7.18359 183.228 7.7665 184.346 8.93233C185.48 10.0824 186.048 11.5003 186.048 13.186C186.048 14.8402 185.528 16.2266 184.488 17.3451C183.448 18.448 182.109 18.9994 180.471 18.9994ZM180.754 18.2195C181.684 18.2195 182.448 17.8257 183.046 17.0379C183.661 16.2502 183.968 15.2026 183.968 13.8949C183.968 12.225 183.574 10.8228 182.786 9.68853C181.999 8.53847 181.006 7.96343 179.809 7.96343C178.801 7.96343 177.981 8.35729 177.351 9.14501C176.721 9.91697 176.406 10.9568 176.406 12.2644C176.406 13.8398 176.816 15.2262 177.635 16.4235C178.454 17.6208 179.494 18.2195 180.754 18.2195Z" fill="#192615"/>
<path d="M168.255 18.9994C166.6 18.9994 165.198 18.4323 164.048 17.298C162.914 16.1479 162.347 14.7221 162.347 13.0207C162.347 11.2877 162.898 9.88554 164.001 8.81424C165.119 7.74295 166.506 7.19942 168.16 7.18367C169.389 7.16791 170.46 7.483 171.374 8.12893C172.303 8.7591 172.768 9.42078 172.768 10.114C172.768 10.6811 172.453 10.9568 171.823 10.9411C171.524 10.9253 171.24 10.7678 170.972 10.4684C170.72 10.1534 170.492 9.81464 170.287 9.45229C170.098 9.07419 169.783 8.72759 169.342 8.41251C168.916 8.09742 168.396 7.93988 167.782 7.93988C166.805 7.93988 166.002 8.34161 165.372 9.14508C164.741 9.9328 164.426 10.9174 164.426 12.099C164.426 13.7375 164.844 15.053 165.679 16.0455C166.514 17.0223 167.593 17.5106 168.916 17.5106C169.688 17.5106 170.35 17.3058 170.901 16.8962C171.468 16.4709 171.902 15.9352 172.201 15.2893C172.296 15.1002 172.445 15.0293 172.65 15.0766C172.855 15.1239 172.934 15.2578 172.886 15.4783C172.697 16.4393 172.193 17.2664 171.374 17.9596C170.57 18.6528 169.531 18.9994 168.255 18.9994Z" fill="#192615"/>
<path d="M159.392 19.0003C158.951 19.0003 158.589 18.8822 158.305 18.6459C158.022 18.3938 157.88 18.0472 157.88 17.6061C157.88 17.1492 158.022 16.7947 158.305 16.5427C158.589 16.2906 158.951 16.1646 159.392 16.1646C159.818 16.1646 160.172 16.2906 160.456 16.5427C160.739 16.7947 160.881 17.1492 160.881 17.6061C160.881 18.0472 160.739 18.3938 160.456 18.6459C160.172 18.8822 159.818 19.0003 159.392 19.0003Z" fill="#192615"/>
<path d="M155.322 17.0626C155.338 17.3146 155.416 17.5194 155.558 17.677C155.7 17.8345 155.834 17.9684 155.96 18.0787C156.102 18.1732 156.173 18.2756 156.173 18.3859V18.4805C156.173 18.6853 156.007 18.7877 155.676 18.7877H152.864C152.533 18.7877 152.368 18.6853 152.368 18.4805V18.3859C152.368 18.2756 152.51 18.1102 152.793 17.8897C153.093 17.6691 153.234 17.4013 153.219 17.0862L152.982 12.3599C152.919 10.9578 152.628 9.90221 152.108 9.19327C151.604 8.46857 150.926 8.10622 150.076 8.10622C149.209 8.10622 148.5 8.41343 147.949 9.02785C147.397 9.64227 147.122 10.4221 147.122 11.3674V17.1098C147.122 17.2989 147.169 17.4643 147.264 17.6061C147.374 17.7321 147.484 17.8266 147.594 17.8897C147.705 17.9527 147.807 18.0315 147.902 18.126C148.012 18.2048 148.067 18.2914 148.067 18.3859V18.4805C148.067 18.6853 147.902 18.7877 147.571 18.7877H144.617C144.302 18.7877 144.144 18.6853 144.144 18.4805V18.3859C144.144 18.2599 144.294 18.0945 144.593 17.8897C144.908 17.6849 145.066 17.4249 145.066 17.1098V9.94948C145.066 9.65014 144.979 9.4217 144.806 9.26416C144.648 9.09086 144.483 8.95695 144.31 8.86242C144.152 8.7679 144.073 8.6655 144.073 8.55521V8.48432C144.073 8.34253 144.199 8.22437 144.451 8.12985L146.224 7.27911C146.444 7.16883 146.61 7.15308 146.72 7.23185C146.83 7.31062 146.885 7.44453 146.885 7.63359V9.35869C147.232 8.697 147.728 8.16923 148.374 7.77537C149.036 7.38152 149.768 7.18459 150.572 7.18459C151.801 7.18459 152.825 7.61783 153.644 8.48432C154.479 9.35081 154.952 10.6584 155.062 12.4072L155.322 17.0626Z" fill="#192615"/>
<path d="M136.761 18.9994C134.933 18.9994 133.444 18.4086 132.294 17.227C131.16 16.0297 130.593 14.596 130.593 12.9261C130.593 11.2876 131.144 9.92485 132.247 8.8378C133.35 7.735 134.713 7.18359 136.335 7.18359C138.084 7.18359 139.518 7.7665 140.636 8.93233C141.771 10.0824 142.338 11.5003 142.338 13.186C142.338 14.8402 141.818 16.2266 140.778 17.3451C139.738 18.448 138.399 18.9994 136.761 18.9994ZM137.044 18.2195C137.974 18.2195 138.738 17.8257 139.336 17.0379C139.951 16.2502 140.258 15.2026 140.258 13.8949C140.258 12.225 139.864 10.8228 139.077 9.68853C138.289 8.53847 137.296 7.96343 136.099 7.96343C135.091 7.96343 134.271 8.35729 133.641 9.14501C133.011 9.91697 132.696 10.9568 132.696 12.2644C132.696 13.8398 133.106 15.2262 133.925 16.4235C134.744 17.6208 135.784 18.2195 137.044 18.2195Z" fill="#192615"/>
<path d="M126.904 5.17562C126.415 5.17562 126.029 5.04171 125.746 4.77388C125.462 4.50606 125.32 4.15159 125.32 3.71047C125.32 3.26934 125.462 2.91487 125.746 2.64705C126.045 2.36347 126.431 2.22168 126.904 2.22168C127.36 2.22168 127.731 2.36347 128.014 2.64705C128.298 2.91487 128.44 3.26934 128.44 3.71047C128.44 4.15159 128.298 4.50606 128.014 4.77388C127.731 5.04171 127.36 5.17562 126.904 5.17562ZM125.533 18.7637C125.234 18.7637 125.084 18.6613 125.084 18.4565V18.362C125.084 18.2517 125.155 18.1493 125.297 18.0548C125.438 17.9445 125.58 17.8185 125.722 17.6767C125.864 17.5192 125.935 17.3222 125.935 17.0859V10.0437C125.935 9.68136 125.793 9.36628 125.509 9.09845C125.226 8.83063 125.084 8.65733 125.084 8.57856V8.5313C125.084 8.42102 125.202 8.30286 125.438 8.17682L127.258 7.27883C127.51 7.1843 127.691 7.16855 127.802 7.23156C127.928 7.29458 127.991 7.42061 127.991 7.60967V17.0859C127.991 17.275 128.038 17.4404 128.132 17.5822C128.227 17.7082 128.337 17.8027 128.463 17.8657C128.589 17.9288 128.7 18.0075 128.794 18.1021C128.889 18.1808 128.936 18.2675 128.936 18.362V18.4565C128.936 18.6613 128.771 18.7637 128.44 18.7637H125.533Z" fill="#192615"/>
<path d="M120.771 19.0002C119.826 19.0002 119.078 18.7009 118.526 18.1022C117.991 17.4878 117.723 16.5977 117.723 15.4318V8.36601H116.163C115.927 8.36601 115.809 8.24785 115.809 8.01154V7.77522C115.809 7.53891 115.927 7.42075 116.163 7.42075H117.014C118.085 7.42075 118.684 6.67242 118.81 5.17576C118.841 4.86067 118.975 4.70312 119.212 4.70312H119.448C119.7 4.70312 119.826 4.86067 119.826 5.17576L119.85 7.42075H123.111C123.205 7.42075 123.284 7.46014 123.347 7.53891C123.426 7.60193 123.465 7.6807 123.465 7.77522V8.01154C123.465 8.24785 123.347 8.36601 123.111 8.36601H119.85V15.4555C119.85 16.0856 119.984 16.574 120.251 16.9206C120.519 17.2672 120.882 17.4405 121.338 17.4405C121.843 17.4405 122.244 17.3145 122.544 17.0624C122.859 16.7946 123.04 16.448 123.087 16.0226C123.166 15.8336 123.3 15.7548 123.489 15.7863C123.694 15.8021 123.796 15.9123 123.796 16.1171C123.796 16.8891 123.512 17.5665 122.945 18.1495C122.394 18.7166 121.669 19.0002 120.771 19.0002Z" fill="#192615"/>
<path d="M114.346 16.8725C114.377 17.2034 114.464 17.4633 114.606 17.6524C114.748 17.8257 114.897 17.9359 115.055 17.9832C115.212 18.0147 115.354 18.062 115.48 18.125C115.606 18.188 115.669 18.2825 115.669 18.4086C115.669 18.7394 115.165 18.9048 114.157 18.9048C113.59 18.9048 113.172 18.8024 112.904 18.5976C112.636 18.3771 112.479 17.9596 112.432 17.3451C111.833 18.448 110.699 18.9994 109.029 18.9994C107.705 18.9994 106.642 18.6843 105.838 18.0541C105.035 17.4239 104.633 16.5496 104.633 15.431C104.618 14.3282 105.011 13.4696 105.815 12.8552C106.634 12.2407 107.682 11.9335 108.958 11.9335C110.218 11.9335 111.187 12.2486 111.865 12.8788L111.817 12.2407C111.675 10.7913 111.384 9.71217 110.943 9.00322C110.502 8.29427 109.824 7.9398 108.911 7.9398C108.359 7.9398 107.902 8.08159 107.54 8.36517C107.178 8.64875 106.926 8.95596 106.784 9.2868C106.658 9.61764 106.5 9.92485 106.311 10.2084C106.122 10.492 105.901 10.6338 105.649 10.6338C105.366 10.6338 105.137 10.555 104.964 10.3975C104.807 10.2399 104.728 10.0273 104.728 9.75943C104.728 9.09775 105.114 8.50696 105.886 7.98706C106.673 7.45142 107.682 7.18359 108.911 7.18359C110.344 7.18359 111.486 7.62472 112.337 8.50696C113.204 9.37345 113.716 10.5944 113.873 12.1698L114.346 16.8725ZM109.549 18.2431C110.321 18.2431 110.951 17.999 111.439 17.5106C111.928 17.0064 112.156 16.3841 112.124 15.6437L112.03 14.5803C111.904 14.0131 111.605 13.5562 111.132 13.2096C110.675 12.863 110.108 12.6897 109.43 12.6897C108.627 12.6897 107.973 12.9182 107.469 13.3751C106.965 13.8319 106.713 14.4227 106.713 15.1474C106.713 16.0297 106.973 16.7701 107.493 17.3688C108.028 17.9517 108.714 18.2431 109.549 18.2431Z" fill="#192615"/>
<path d="M100.849 5.17562C100.361 5.17562 99.9746 5.04171 99.691 4.77388C99.4074 4.50606 99.2656 4.15159 99.2656 3.71047C99.2656 3.26934 99.4074 2.91487 99.691 2.64705C99.9903 2.36347 100.376 2.22168 100.849 2.22168C101.306 2.22168 101.676 2.36347 101.96 2.64705C102.243 2.91487 102.385 3.26934 102.385 3.71047C102.385 4.15159 102.243 4.50606 101.96 4.77388C101.676 5.04171 101.306 5.17562 100.849 5.17562ZM99.4783 18.7637C99.179 18.7637 99.0293 18.6613 99.0293 18.4565V18.362C99.0293 18.2517 99.1002 18.1493 99.242 18.0548C99.3838 17.9445 99.5256 17.8185 99.6674 17.6767C99.8091 17.5192 99.88 17.3222 99.88 17.0859V10.0437C99.88 9.68136 99.7382 9.36628 99.4547 9.09845C99.1711 8.83063 99.0293 8.65733 99.0293 8.57856V8.5313C99.0293 8.42102 99.1475 8.30286 99.3838 8.17682L101.203 7.27883C101.455 7.1843 101.637 7.16855 101.747 7.23156C101.873 7.29458 101.936 7.42061 101.936 7.60967V17.0859C101.936 17.275 101.983 17.4404 102.078 17.5822C102.172 17.7082 102.283 17.8027 102.409 17.8657C102.535 17.9288 102.645 18.0075 102.739 18.1021C102.834 18.1808 102.881 18.2675 102.881 18.362V18.4565C102.881 18.6613 102.716 18.7637 102.385 18.7637H99.4783Z" fill="#192615"/>
<path d="M96.3498 17.1094C96.3498 17.4245 96.4916 17.7002 96.7752 17.9365C97.0745 18.1728 97.2242 18.3383 97.2242 18.4328V18.5037C97.2242 18.677 97.106 18.7636 96.8697 18.7636H94.8847C94.6484 18.7636 94.5144 18.6376 94.4829 18.3855L94.4357 17.204C94.0418 17.7869 93.5219 18.2359 92.876 18.551C92.2458 18.8503 91.5684 18.9999 90.8437 18.9999C89.347 18.9999 88.063 18.4485 86.9917 17.3457C85.9204 16.2429 85.3848 14.8172 85.3848 13.0684C85.3848 11.3512 85.9125 9.9412 86.9681 8.83839C88.0236 7.73559 89.3391 7.18419 90.9146 7.18419C92.3009 7.18419 93.4431 7.6962 94.3411 8.72024V3.56857C94.3411 3.28499 94.2545 3.05655 94.0812 2.88325C93.9237 2.70995 93.7582 2.57604 93.5849 2.48152C93.4274 2.38699 93.3486 2.28459 93.3486 2.17431V2.12704C93.3486 1.9695 93.4668 1.83559 93.7031 1.72531L95.6172 1.08726C96.1056 0.898203 96.3498 1.01636 96.3498 1.44173V17.1094ZM91.3399 18.2201C92.0961 18.2201 92.7815 17.9208 93.3959 17.3221C94.0261 16.7077 94.3411 15.8727 94.3411 14.8172H94.3648L94.3411 13.612V11.2488C94.3411 10.4453 93.9945 9.69701 93.3014 9.00381C92.6239 8.29487 91.8204 7.9404 90.8909 7.9404C89.8669 7.9404 89.0319 8.35001 88.386 9.16924C87.7558 9.97271 87.4328 11.0361 87.4171 12.3595C87.3856 13.9979 87.74 15.3843 88.4805 16.5186C89.221 17.6372 90.1741 18.2044 91.3399 18.2201Z" fill="#192615"/>
<path d="M83.279 15.431C83.3893 15.2577 83.5389 15.1947 83.728 15.2419C83.9171 15.2735 83.9958 15.3995 83.9643 15.62C83.791 16.455 83.2869 17.227 82.4519 17.9359C81.6169 18.6449 80.522 18.9994 79.1671 18.9994C77.6074 18.9994 76.2998 18.448 75.2443 17.3451C74.2045 16.2423 73.6846 14.7929 73.6846 12.9969C73.6846 11.3427 74.2202 9.96424 75.2915 8.86143C76.3628 7.74287 77.6862 7.18359 79.2616 7.18359C80.6008 7.18359 81.6642 7.54594 82.4519 8.27064C83.2554 8.97959 83.6571 9.78306 83.6571 10.6811C83.6571 11.3585 83.2869 11.8232 82.5464 12.0753L76.0005 14.2258C76.2683 15.2498 76.7409 16.0533 77.4184 16.6362C78.1116 17.2034 78.9387 17.4869 79.8997 17.4869C81.5224 17.4869 82.6488 16.8016 83.279 15.431ZM78.9072 7.9398C77.9619 7.9398 77.1978 8.34942 76.6149 9.16864C76.032 9.98787 75.7405 11.0119 75.7405 12.2407C75.7405 12.7134 75.772 13.1151 75.835 13.4459L81.1049 11.5554C81.483 11.3979 81.672 11.1222 81.672 10.7283C81.672 10.1297 81.3964 9.51524 80.8449 8.88506C80.3093 8.25489 79.6634 7.9398 78.9072 7.9398Z" fill="#192615"/>
<path d="M71.7273 17.0386C71.7903 17.3852 71.9636 17.6767 72.2472 17.913C72.5466 18.1336 72.6962 18.3069 72.6962 18.4329V18.4802C72.6962 18.6692 72.5308 18.7637 72.2 18.7637H69.2933C68.9782 18.7637 68.8206 18.6692 68.8206 18.4802V18.4329C68.8206 18.3226 68.8994 18.2123 69.057 18.102C69.2145 17.9918 69.3563 17.8579 69.4823 17.7003C69.6084 17.527 69.6477 17.3065 69.6005 17.0386L67.5209 5.2465L62.771 18.2438C62.6292 18.5747 62.4244 18.7401 62.1565 18.7401C61.8729 18.7401 61.6603 18.5826 61.5185 18.2675L56.7213 4.96292L54.6889 17.0386C54.6574 17.2434 54.6811 17.4246 54.7598 17.5822C54.8386 17.7239 54.941 17.8342 55.0671 17.913C55.1931 17.976 55.3112 18.0548 55.4215 18.1493C55.5318 18.2438 55.5869 18.3384 55.5869 18.4329V18.4802C55.5869 18.6692 55.4294 18.7637 55.1143 18.7637H52.9638C52.6488 18.7637 52.4912 18.6692 52.4912 18.4802V18.4329C52.4912 18.3069 52.633 18.1257 52.9166 17.8894C53.2002 17.653 53.3735 17.3695 53.4365 17.0386L55.7287 3.68682C55.776 3.37173 55.6578 3.10391 55.3743 2.88335C55.0907 2.64703 54.9489 2.46586 54.9489 2.33982V2.29256C54.9489 2.08775 55.0828 1.98535 55.3506 1.98535H56.9103C57.3829 1.98535 57.6902 2.19016 57.8319 2.59977L62.4401 15.9516L67.1901 2.57614C67.3318 2.18228 67.6154 1.98535 68.0408 1.98535H69.7186C69.955 1.98535 70.0731 2.072 70.0731 2.2453V2.31619C70.0731 2.44223 69.9865 2.56826 69.8132 2.6943C69.6556 2.80458 69.5138 2.95424 69.3878 3.1433C69.2618 3.33235 69.2224 3.57654 69.2696 3.87587L71.7273 17.0386Z" fill="#192615"/>
<path d="M48.7468 19.0002C47.8016 19.0002 47.0532 18.7009 46.5018 18.1022C45.9662 17.4878 45.6983 16.5977 45.6983 15.4318V8.36601H44.1387C43.9023 8.36601 43.7842 8.24785 43.7842 8.01154V7.77522C43.7842 7.53891 43.9023 7.42075 44.1387 7.42075H44.9894C46.0607 7.42075 46.6594 6.67242 46.7854 5.17576C46.8169 4.86067 46.9508 4.70312 47.1871 4.70312H47.4234C47.6755 4.70312 47.8016 4.86067 47.8016 5.17576L47.8252 7.42075H51.0863C51.1809 7.42075 51.2596 7.46014 51.3227 7.53891C51.4014 7.60193 51.4408 7.6807 51.4408 7.77522V8.01154C51.4408 8.24785 51.3227 8.36601 51.0863 8.36601H47.8252V15.4555C47.8252 16.0856 47.9591 16.574 48.2269 16.9206C48.4947 17.2672 48.8571 17.4405 49.314 17.4405C49.8181 17.4405 50.2199 17.3145 50.5192 17.0624C50.8343 16.7946 51.0154 16.448 51.0627 16.0226C51.1415 15.8336 51.2754 15.7548 51.4644 15.7863C51.6693 15.8021 51.7717 15.9123 51.7717 16.1171C51.7717 16.8891 51.4881 17.5665 50.9209 18.1495C50.3695 18.7166 49.6448 19.0002 48.7468 19.0002Z" fill="#192615"/>
<path d="M40.7073 5.17562C40.2189 5.17562 39.833 5.04171 39.5494 4.77388C39.2658 4.50606 39.124 4.15159 39.124 3.71047C39.124 3.26934 39.2658 2.91487 39.5494 2.64705C39.8487 2.36347 40.2347 2.22168 40.7073 2.22168C41.1642 2.22168 41.5344 2.36347 41.818 2.64705C42.1016 2.91487 42.2434 3.26934 42.2434 3.71047C42.2434 4.15159 42.1016 4.50606 41.818 4.77388C41.5344 5.04171 41.1642 5.17562 40.7073 5.17562ZM39.3367 18.7637C39.0374 18.7637 38.8877 18.6613 38.8877 18.4565V18.362C38.8877 18.2517 38.9586 18.1493 39.1004 18.0548C39.2422 17.9445 39.384 17.8185 39.5257 17.6767C39.6675 17.5192 39.7384 17.3222 39.7384 17.0859V10.0437C39.7384 9.68136 39.5966 9.36628 39.3131 9.09845C39.0295 8.83063 38.8877 8.65733 38.8877 8.57856V8.5313C38.8877 8.42102 39.0059 8.30286 39.2422 8.17682L41.0618 7.27883C41.3139 7.1843 41.495 7.16855 41.6053 7.23156C41.7314 7.29458 41.7944 7.42061 41.7944 7.60967V17.0859C41.7944 17.275 41.8416 17.4404 41.9362 17.5822C42.0307 17.7082 42.141 17.8027 42.267 17.8657C42.393 17.9288 42.5033 18.0075 42.5979 18.1021C42.6924 18.1808 42.7396 18.2675 42.7396 18.362V18.4565C42.7396 18.6613 42.5742 18.7637 42.2434 18.7637H39.3367Z" fill="#192615"/>
<path d="M35.63 7.18359C36.3074 7.18359 36.8352 7.35689 37.2133 7.70349C37.6072 8.05008 37.8041 8.48333 37.8041 9.00322C37.8041 9.74367 37.489 10.1139 36.8588 10.1139C36.591 10.1139 36.3783 10.0273 36.2208 9.85396C36.0632 9.68066 35.9529 9.49161 35.8899 9.2868C35.8427 9.08199 35.7245 8.89294 35.5354 8.71964C35.3464 8.54634 35.0864 8.4597 34.7556 8.4597C34.1254 8.4597 33.6292 8.77478 33.2668 9.40496C32.9202 10.0194 32.7469 10.7913 32.7469 11.7208V17.1088C32.7469 17.4239 32.9123 17.6917 33.2432 17.9123C33.574 18.1171 33.7394 18.2747 33.7394 18.3849V18.4795C33.7394 18.6685 33.5819 18.763 33.2668 18.763H30.3365C30.0214 18.763 29.8639 18.6685 29.8639 18.4795V18.3849C29.8639 18.2747 30.0057 18.1171 30.2892 17.9123C30.5886 17.6917 30.7382 17.4239 30.7382 17.1088V9.92485C30.7382 9.59401 30.5807 9.31043 30.2656 9.07411C29.9505 8.8378 29.793 8.6645 29.793 8.55422V8.50696C29.793 8.34941 29.9111 8.20763 30.1474 8.08159L31.9434 7.27812C32.3531 7.08907 32.5579 7.19935 32.5579 7.60896V9.49948C33.0935 7.95556 34.1176 7.18359 35.63 7.18359Z" fill="#192615"/>
<path d="M26.994 16.7314C26.994 17.1253 27.0649 17.4246 27.2067 17.6294C27.3484 17.8342 27.4981 17.9524 27.6557 17.9839C27.8132 17.9996 27.9629 18.039 28.1047 18.102C28.2464 18.1651 28.3173 18.2675 28.3173 18.4093C28.3173 18.7401 27.829 18.9055 26.8522 18.9055C25.6549 18.9055 25.0798 18.3226 25.1271 17.1568L25.0798 17.015C24.3551 18.3384 23.142 19 21.4405 19C20.1172 19 19.0538 18.5353 18.2503 17.6058C17.4626 16.6605 17.0687 15.3293 17.0687 13.6121V9.42928C17.0687 9.08268 16.919 8.79122 16.6197 8.55491C16.3361 8.31859 16.1943 8.15317 16.1943 8.05865V7.98775C16.1943 7.7987 16.3125 7.68054 16.5488 7.63328L18.5339 7.27881C18.9592 7.20004 19.1719 7.29456 19.1719 7.56239L19.1483 13.7775C19.1483 15.1481 19.3846 16.2115 19.8572 16.9677C20.3456 17.7082 21.0388 18.0784 21.9368 18.0784C22.7876 18.0784 23.4965 17.7476 24.0637 17.0859C24.6466 16.4242 24.938 15.5577 24.938 14.4864V9.42928C24.938 9.09844 24.7805 8.81486 24.4654 8.57854C24.1661 8.34223 24.0164 8.16893 24.0164 8.05865V7.98775C24.0164 7.7987 24.1346 7.68054 24.3709 7.63328L26.3796 7.27881C26.7892 7.20004 26.994 7.29456 26.994 7.56239V16.7314Z" fill="#192615"/>
<path d="M14.8381 17.1095C14.9799 17.4246 15.2005 17.6924 15.4998 17.913C15.8149 18.1178 15.9724 18.2911 15.9724 18.4329V18.4802C15.9724 18.6692 15.8228 18.7637 15.5234 18.7637H12.1914C11.892 18.7637 11.7424 18.6692 11.7424 18.4802V18.4329C11.7424 18.3384 11.7975 18.2438 11.9078 18.1493C12.0181 18.0548 12.1284 17.976 12.2386 17.913C12.3647 17.85 12.4671 17.7476 12.5459 17.6058C12.6246 17.464 12.6246 17.2986 12.5459 17.1095L11.4115 14.321H3.7549L2.71511 17.1095C2.63634 17.2986 2.62846 17.464 2.69148 17.6058C2.77025 17.7476 2.86478 17.85 2.97506 17.913C3.10109 17.976 3.21925 18.0548 3.32953 18.1493C3.45557 18.2438 3.51858 18.3384 3.51858 18.4329V18.4802C3.51858 18.6692 3.35316 18.7637 3.02232 18.7637H0.777319C0.462231 18.7637 0.304688 18.6692 0.304688 18.4802V18.4329C0.304688 18.3069 0.454354 18.1414 0.753688 17.9366C1.06878 17.7161 1.28934 17.4404 1.41537 17.1095L6.66159 3.71045C6.77187 3.44263 6.67734 3.16693 6.37801 2.88335C6.07867 2.58402 5.92901 2.39496 5.92901 2.31619V2.2453C5.92901 2.072 6.03929 1.98535 6.25985 1.98535H7.63048C8.15038 1.98535 8.52061 2.2453 8.74117 2.76519L14.8381 17.1095ZM4.15664 13.3049H11.0098L7.46506 4.53756L4.15664 13.3049Z" fill="#192615"/>
</svg>
