<svg width="21" height="21" viewBox="0 0 21 21" fill="none" xmlns="http://www.w3.org/2000/svg">
<g clip-path="url(#clip0_1_11418)">
<path fill-rule="evenodd" clip-rule="evenodd" d="M19.4914 16.8919C19.4396 16.7314 19.3637 16.5797 19.2664 16.4419C19.0997 16.1919 18.8664 15.9586 18.6997 15.7502C18.3247 15.2752 17.9414 14.8086 17.5331 14.3586C17.2708 14.0657 16.9926 13.7875 16.6997 13.5252C16.4657 13.2902 16.212 13.0755 15.9414 12.8836C15.7087 12.7253 15.4387 12.6305 15.1581 12.6086C14.875 12.6104 14.6001 12.7039 14.3747 12.8752C13.8747 13.2002 13.2331 13.8586 12.6497 14.2002C12.4414 14.3169 12.2497 14.4502 12.1081 14.2836C11.2747 13.3586 10.6247 12.5002 9.87473 11.6252C9.54973 11.2502 9.22473 10.8836 8.87473 10.5002C8.52473 10.1169 7.80807 9.4419 7.30807 8.83357C6.99486 8.47977 6.75167 8.06974 6.5914 7.62524C6.5914 7.47524 6.63307 7.32524 6.75807 7.15024C7.23371 6.56571 7.7488 6.01442 8.29973 5.50024C8.58521 5.23964 8.79289 4.90504 8.89973 4.53357C8.927 4.38574 8.90351 4.23303 8.83307 4.10024C8.7164 3.90024 8.49973 3.70024 8.40807 3.55857C8.17473 3.23357 7.9414 2.9169 7.69973 2.60857C7.30807 2.1669 6.93307 1.6919 6.5664 1.23357C6.52391 1.18125 6.46266 1.14761 6.39571 1.13983C6.32876 1.13204 6.26143 1.15073 6.20807 1.1919C6.16226 1.23863 6.1366 1.30146 6.1366 1.3669C6.1366 1.43234 6.16226 1.49517 6.20807 1.5419C6.57473 2.00857 6.93307 2.45857 7.28307 2.92524C7.5164 3.23357 7.7414 3.55024 7.95807 3.8669C8.03307 3.9919 8.19973 4.15024 8.30807 4.3169C8.4164 4.48357 8.3914 4.40857 8.37473 4.45857C8.22976 4.79502 7.99294 5.08383 7.6914 5.2919C7.15534 5.72465 6.65893 6.20433 6.20807 6.72523C6.08421 6.86542 5.99484 7.03261 5.9471 7.21347C5.89935 7.39433 5.89454 7.58385 5.93307 7.7669C6.12008 8.29702 6.40251 8.78844 6.7664 9.2169C7.25807 9.85024 7.88307 10.4502 8.3164 10.9502C8.74973 11.4502 8.97473 11.7002 9.27473 12.0752C10.0164 12.9669 10.6831 13.8419 11.4581 14.7836C11.5917 14.9536 11.7764 15.0761 11.985 15.1331C12.1935 15.1902 12.4149 15.1786 12.6164 15.1002C13.2294 14.8183 13.7923 14.4383 14.2831 13.9752C14.4609 13.8282 14.6474 13.6918 14.8414 13.5669C14.9247 13.5169 14.9831 13.4669 15.0414 13.4752C15.1687 13.4899 15.2897 13.5389 15.3914 13.6169C15.6144 13.7828 15.8235 13.9668 16.0164 14.1669C16.3095 14.4289 16.5877 14.7072 16.8497 15.0002C17.2414 15.4419 17.6081 15.9002 17.9664 16.3586C18.0997 16.5252 18.2831 16.7169 18.4331 16.9169C18.5069 16.9993 18.5635 17.0957 18.5997 17.2002C18.7164 17.5669 18.4914 17.8836 18.1914 18.1669C17.635 18.661 16.9741 19.0228 16.2581 19.2252C14.2081 19.8091 12.0156 19.6254 10.0914 18.7086C8.15896 17.7428 6.45446 16.3763 5.0914 14.7002C3.32518 12.7758 2.29007 10.2927 2.1664 7.68357C2.0664 4.4669 3.55807 1.85024 5.17473 1.0169C5.20866 0.997751 5.23848 0.972105 5.26249 0.941429C5.28651 0.910754 5.30424 0.875648 5.31469 0.838118C5.32514 0.800588 5.32809 0.761367 5.32338 0.722696C5.31867 0.684025 5.30638 0.64666 5.28723 0.612735C5.26808 0.57881 5.24244 0.54899 5.21176 0.524976C5.18108 0.500963 5.14598 0.483226 5.10845 0.47278C5.03265 0.451682 4.95158 0.461558 4.88307 0.500235C3.1164 1.33357 1.37473 4.1919 1.43307 7.70024C1.52641 10.4724 2.58449 13.1249 4.42473 15.2002C5.84179 17.0031 7.62926 18.4808 9.6664 19.5336C11.785 20.5625 14.2073 20.779 16.4747 20.1419C17.3489 19.888 18.1549 19.4409 18.8331 18.8336C19.1212 18.6102 19.3372 18.307 19.4542 17.9617C19.5713 17.6165 19.5842 17.2444 19.4914 16.8919Z" fill="#192615"/>
<path d="M11.7577 4.29994C11.8445 4.06929 11.9142 3.83253 11.9661 3.59161C11.9921 3.49652 12.0061 3.39853 12.0077 3.29994C12.0203 3.20313 12.0203 3.10509 12.0077 3.00828C12.0077 2.76661 12.0661 2.17494 12.0077 1.89161C12.0199 1.8242 12.0047 1.75473 11.9657 1.69848C11.9266 1.64222 11.8668 1.60378 11.7994 1.59161C11.7654 1.58437 11.7303 1.58406 11.6962 1.59069C11.6621 1.59733 11.6297 1.61077 11.6009 1.63022C11.5722 1.64967 11.5476 1.67472 11.5287 1.70389C11.5098 1.73305 11.497 1.76572 11.4911 1.79994C11.3078 2.16857 11.1518 2.55015 11.0244 2.94161C11.0023 3.04593 10.9884 3.1518 10.9827 3.25828C10.9745 3.35811 10.9745 3.45844 10.9827 3.55828C10.9827 3.79994 11.0827 4.01661 11.1244 4.25828C11.121 4.2966 11.1252 4.33523 11.1367 4.37194C11.1483 4.40864 11.167 4.44269 11.1918 4.47212C11.2166 4.50156 11.247 4.5258 11.2812 4.54345C11.3154 4.56109 11.3527 4.5718 11.3911 4.57494C11.4337 4.5863 11.4784 4.58784 11.5217 4.57944C11.565 4.57103 11.6059 4.55291 11.6412 4.52644C11.6765 4.49996 11.7053 4.46582 11.7255 4.42659C11.7457 4.38736 11.7567 4.34405 11.7577 4.29994Z" fill="#192615"/>
<path d="M15.4996 4.52518C15.2996 4.66685 15.0829 4.72518 14.8746 4.85018C14.7861 4.90075 14.7024 4.95932 14.6246 5.02518C14.5434 5.09379 14.4682 5.16905 14.3996 5.25018C14.2253 5.45388 14.0718 5.67441 13.9412 5.90851C13.8871 5.96708 13.8584 6.04476 13.8616 6.12447C13.8647 6.20417 13.8993 6.27936 13.9579 6.33351C14.0165 6.38766 14.0942 6.41633 14.1739 6.4132C14.2536 6.41007 14.3288 6.37542 14.3829 6.31685C14.5912 6.17518 14.8162 6.10018 15.0246 5.96685C15.1701 5.88095 15.3045 5.77739 15.4246 5.65851C15.6382 5.4147 15.8024 5.13167 15.9079 4.82518C15.9254 4.7718 15.9255 4.71426 15.9084 4.66078C15.8912 4.6073 15.8576 4.56061 15.8124 4.52735C15.7671 4.4941 15.7125 4.47598 15.6563 4.47559C15.6002 4.4752 15.5453 4.49256 15.4996 4.52518Z" fill="#192615"/>
<path d="M17.7501 9.50837C17.451 9.47507 17.1492 9.47507 16.8501 9.50837C16.493 9.56168 16.1396 9.63682 15.7917 9.73337C15.7523 9.73652 15.7139 9.74744 15.6787 9.76551C15.6435 9.78358 15.6122 9.80843 15.5866 9.83864C15.561 9.86885 15.5417 9.90381 15.5297 9.94153C15.5177 9.97924 15.5133 10.0189 15.5167 10.0584C15.5199 10.0967 15.5306 10.1341 15.5482 10.1683C15.5659 10.2025 15.5901 10.2328 15.6196 10.2576C15.649 10.2824 15.6831 10.3011 15.7198 10.3127C15.7565 10.3243 15.7951 10.3285 15.8334 10.325C16.1917 10.325 16.5334 10.4334 16.8917 10.4584C17.1302 10.479 17.37 10.479 17.6084 10.4584C18.0218 10.41 18.4312 10.332 18.8334 10.225C18.9027 10.2207 18.9675 10.1896 19.0142 10.1383C19.0609 10.0869 19.0857 10.0194 19.0834 9.95004C19.0813 9.915 19.0723 9.88072 19.0569 9.84917C19.0415 9.81762 19.02 9.78942 18.9937 9.7662C18.9673 9.74297 18.9367 9.72517 18.9035 9.71382C18.8703 9.70246 18.8351 9.69778 18.8001 9.70004C18.4334 9.66671 18.1084 9.55004 17.7501 9.50837Z" fill="#192615"/>
</g>
<defs>
<clipPath id="clip0_1_11418">
<rect width="20" height="20" fill="white" transform="translate(0.5 0.5)"/>
</clipPath>
</defs>
</svg>
