<svg xmlns="http://www.w3.org/2000/svg" viewBox="0 0 1600 1000" role="img" aria-labelledby="title desc">
  <title id="title">Caricature: Content Gap Commander</title>
  <desc id="desc">A stylized caricature of a glasses-wearing SEO strategist at a desk commanding content maps, keyword clusters, and ranking rockets.</desc>
  <defs>
    <linearGradient id="bg" x1="0%" y1="0%" x2="100%" y2="100%">
      <stop offset="0%" stop-color="#f5efe3" />
      <stop offset="45%" stop-color="#ece4d5" />
      <stop offset="100%" stop-color="#d7e6ef" />
    </linearGradient>
    <linearGradient id="panel" x1="0%" y1="0%" x2="0%" y2="100%">
      <stop offset="0%" stop-color="#1c2b3f" />
      <stop offset="100%" stop-color="#101a2a" />
    </linearGradient>
    <linearGradient id="skin" x1="0%" y1="0%" x2="0%" y2="100%">
      <stop offset="0%" stop-color="#f4b795" />
      <stop offset="100%" stop-color="#d88f6e" />
    </linearGradient>
    <linearGradient id="shirt" x1="0%" y1="0%" x2="100%" y2="100%">
      <stop offset="0%" stop-color="#1c1f24" />
      <stop offset="100%" stop-color="#0e1014" />
    </linearGradient>
    <linearGradient id="desk" x1="0%" y1="0%" x2="0%" y2="100%">
      <stop offset="0%" stop-color="#6e4f36" />
      <stop offset="100%" stop-color="#4f3725" />
    </linearGradient>
    <linearGradient id="laptop" x1="0%" y1="0%" x2="100%" y2="100%">
      <stop offset="0%" stop-color="#cfd5dd" />
      <stop offset="100%" stop-color="#a7b1bc" />
    </linearGradient>
    <radialGradient id="spot" cx="50%" cy="45%" r="55%">
      <stop offset="0%" stop-color="#ffffff" stop-opacity="0.55" />
      <stop offset="100%" stop-color="#ffffff" stop-opacity="0" />
    </radialGradient>
    <pattern id="grid" width="36" height="36" patternUnits="userSpaceOnUse">
      <path d="M36 0H0V36" fill="none" stroke="#ffffff" stroke-opacity="0.08" />
    </pattern>
    <filter id="shadow" x="-50%" y="-50%" width="200%" height="200%">
      <feDropShadow dx="0" dy="8" stdDeviation="8" flood-opacity="0.25" />
    </filter>
    <filter id="softShadow" x="-50%" y="-50%" width="200%" height="200%">
      <feDropShadow dx="0" dy="5" stdDeviation="5" flood-opacity="0.2" />
    </filter>
  </defs>

  <rect width="1600" height="1000" fill="url(#bg)" />
  <rect width="1600" height="1000" fill="url(#grid)" />
  <ellipse cx="800" cy="430" rx="680" ry="350" fill="url(#spot)" />

  <g filter="url(#shadow)">
    <rect x="72" y="88" width="620" height="420" rx="26" fill="url(#panel)" />
    <text x="102" y="144" fill="#c8d7f0" font-size="38" font-family="Verdana, sans-serif" font-weight="700">SERP WAR ROOM</text>
    <rect x="102" y="170" width="560" height="1" fill="#4b6689" />

    <rect x="112" y="194" width="250" height="132" rx="14" fill="#0f1828" stroke="#2e4665" />
    <path d="M132 290L176 252L218 266L264 226L320 236L342 210" fill="none" stroke="#5ce9b6" stroke-width="6" stroke-linecap="round" />
    <text x="132" y="226" fill="#8ab1df" font-size="18" font-family="Verdana, sans-serif">Keyword Cluster Growth</text>

    <rect x="382" y="194" width="270" height="132" rx="14" fill="#0f1828" stroke="#2e4665" />
    <rect x="412" y="275" width="32" height="30" fill="#58c6ff" />
    <rect x="456" y="260" width="32" height="45" fill="#58c6ff" />
    <rect x="500" y="240" width="32" height="65" fill="#58c6ff" />
    <rect x="544" y="220" width="32" height="85" fill="#58c6ff" />
    <rect x="588" y="206" width="32" height="99" fill="#58c6ff" />
    <text x="412" y="226" fill="#8ab1df" font-size="18" font-family="Verdana, sans-serif">Page Depth Coverage</text>

    <rect x="112" y="346" width="540" height="142" rx="14" fill="#0f1828" stroke="#2e4665" />
    <text x="132" y="382" fill="#fce69a" font-size="24" font-family="Verdana, sans-serif" font-weight="700">LIVE TARGETS</text>

    <g font-family="Verdana, sans-serif" font-size="18" font-weight="700">
      <rect x="132" y="400" width="154" height="34" rx="17" fill="#ff7f66" /><text x="154" y="423" fill="#fff9f4">content map</text>
      <rect x="298" y="400" width="154" height="34" rx="17" fill="#f7bf4a" /><text x="330" y="423" fill="#2e2411">search intent</text>
      <rect x="464" y="400" width="156" height="34" rx="17" fill="#58c6ff" /><text x="518" y="423" fill="#0d2f43">LLM-ready</text>
      <rect x="132" y="444" width="200" height="34" rx="17" fill="#5ce9b6" /><text x="166" y="467" fill="#093327">semantic clusters</text>
      <rect x="344" y="444" width="120" height="34" rx="17" fill="#f58bc6" /><text x="370" y="467" fill="#4e1e38">schema</text>
      <rect x="474" y="444" width="146" height="34" rx="17" fill="#bfa6ff" /><text x="512" y="467" fill="#302158">site links</text>
    </g>
  </g>

  <g filter="url(#shadow)">
    <path d="M0 720H1600V1000H0Z" fill="url(#desk)" />
    <rect x="0" y="714" width="1600" height="16" fill="#8a6648" />
  </g>

  <g transform="translate(700 130)" filter="url(#softShadow)">
    <path d="M164 112C205 40 310 30 353 112L357 168H162Z" fill="#111318" />
    <path d="M170 118L192 85L204 105L227 64L242 92L270 58L288 96L314 70L334 111L348 96L351 158H170Z" fill="#171a21" />

    <ellipse cx="258" cy="198" rx="132" ry="146" fill="url(#skin)" />
    <ellipse cx="124" cy="206" rx="26" ry="36" fill="url(#skin)" />
    <ellipse cx="392" cy="206" rx="26" ry="36" fill="url(#skin)" />

    <path d="M174 150Q258 110 342 150" fill="none" stroke="#272028" stroke-width="8" stroke-linecap="round" />
    <rect x="142" y="164" width="100" height="78" rx="18" fill="#ffffff" fill-opacity="0.15" stroke="#313847" stroke-width="7" />
    <rect x="274" y="164" width="100" height="78" rx="18" fill="#ffffff" fill-opacity="0.15" stroke="#313847" stroke-width="7" />
    <rect x="242" y="194" width="32" height="10" rx="5" fill="#313847" />

    <circle cx="194" cy="202" r="12" fill="#31272a" />
    <circle cx="322" cy="202" r="12" fill="#31272a" />
    <circle cx="189" cy="198" r="4" fill="#ffffff" fill-opacity="0.8" />
    <circle cx="317" cy="198" r="4" fill="#ffffff" fill-opacity="0.8" />

    <path d="M214 178Q194 164 172 176" fill="none" stroke="#1c1618" stroke-width="7" stroke-linecap="round" />
    <path d="M344 178Q324 164 302 176" fill="none" stroke="#1c1618" stroke-width="7" stroke-linecap="round" />

    <path d="M257 208Q268 230 255 252" fill="none" stroke="#b17355" stroke-width="5" stroke-linecap="round" />
    <path d="M218 268Q258 286 298 268" fill="none" stroke="#362b2d" stroke-width="8" stroke-linecap="round" />
    <path d="M244 288Q258 307 272 288" fill="none" stroke="#241c1f" stroke-width="10" stroke-linecap="round" />
    <path d="M226 307Q258 326 290 307" fill="none" stroke="#241c1f" stroke-width="8" stroke-linecap="round" />

    <path d="M208 328Q258 342 308 328L322 392Q258 416 194 392Z" fill="url(#shirt)" />
    <rect x="236" y="318" width="42" height="24" rx="8" fill="#c88263" />
  </g>

  <g transform="translate(640 500)" filter="url(#softShadow)">
    <path d="M178 35Q260 -14 398 44L405 104Q313 70 220 106Z" fill="url(#shirt)" />
    <path d="M390 72Q454 90 502 130Q490 166 460 178Q420 142 378 118Z" fill="#13161b" />
    <path d="M498 130Q534 154 539 183Q520 201 494 194Q488 165 472 144Z" fill="url(#skin)" />
    <rect x="126" y="99" width="596" height="238" rx="20" fill="url(#laptop)" />
    <rect x="148" y="118" width="552" height="182" rx="14" fill="#0e1826" />
    <path d="M160 266L234 238L286 252L360 206L450 222L536 178L622 190L686 150" fill="none" stroke="#5ce9b6" stroke-width="7" stroke-linecap="round" />
    <g fill="#8ab1df" font-family="Verdana, sans-serif" font-size="22" font-weight="700">
      <text x="178" y="160">Rank Lift</text>
      <text x="178" y="198">Intent Match</text>
      <text x="178" y="236">CTR Boost</text>
    </g>
    <g font-family="Verdana, sans-serif" font-size="20" font-weight="700">
      <rect x="514" y="122" width="72" height="34" rx="17" fill="#ff7f66" /><text x="535" y="145" fill="#fff9f4">SEO</text>
      <rect x="592" y="122" width="72" height="34" rx="17" fill="#f7bf4a" /><text x="614" y="145" fill="#2e2411">AEO</text>
      <rect x="514" y="164" width="150" height="34" rx="17" fill="#58c6ff" /><text x="553" y="187" fill="#073245">SGE MODE</text>
    </g>
    <rect x="96" y="330" width="658" height="18" rx="9" fill="#8f9ba8" />
  </g>

  <g transform="translate(1140 180)" filter="url(#shadow)">
    <rect x="0" y="0" width="360" height="280" rx="20" fill="#fff7ec" stroke="#d4c3ac" />
    <text x="24" y="50" fill="#5f4b38" font-size="32" font-family="Verdana, sans-serif" font-weight="700">TODAY'S BRIEF</text>
    <g font-family="Verdana, sans-serif" font-size="22" fill="#6f5a45">
      <text x="24" y="94">1. Close content gaps</text>
      <text x="24" y="130">2. Build topic authority</text>
      <text x="24" y="166">3. Beat competitors</text>
      <text x="24" y="202">4. Ship fast, rank faster</text>
    </g>
    <rect x="26" y="226" width="180" height="34" rx="17" fill="#ff7f66" />
    <text x="56" y="249" fill="#fffdf9" font-size="20" font-family="Verdana, sans-serif" font-weight="700">publish now</text>
  </g>

  <g transform="translate(110 560)" filter="url(#softShadow)">
    <path d="M0 0H420V110H0Z" fill="#f8f5ef" stroke="#d9d2c8" />
    <text x="24" y="42" fill="#2e343f" font-size="32" font-family="Verdana, sans-serif" font-weight="700">CONTENT GAP COMMANDER</text>
    <text x="24" y="78" fill="#465366" font-size="22" font-family="Verdana, sans-serif">Turning keyword chaos into ranking systems.</text>
  </g>

  <g transform="translate(1230 560)">
    <path d="M0 0Q60 12 90 62Q84 124 42 162Q6 130 0 74Z" fill="#58c6ff" filter="url(#softShadow)" />
    <path d="M32 46L70 82L34 120L22 84Z" fill="#f9fbff" />
    <circle cx="16" cy="72" r="10" fill="#ff7f66" />
    <path d="M32 164Q58 192 84 196Q64 216 34 212Q16 192 12 174Z" fill="#ff7f66" />
    <path d="M102 22Q164 48 194 106Q188 172 130 218Q88 168 86 104Z" fill="#f7bf4a" filter="url(#softShadow)" />
    <path d="M132 76L170 112L134 150L120 112Z" fill="#fff8e8" />
    <circle cx="112" cy="102" r="12" fill="#58c6ff" />
    <path d="M130 220Q160 248 190 252Q168 274 134 270Q114 248 108 228Z" fill="#58c6ff" />
  </g>

  <text x="802" y="962" text-anchor="middle" fill="#3f3a33" font-size="24" font-family="Verdana, sans-serif">
    Caricature inspired by your photo + your SEO and content-gap strategy work
  </text>
</svg>
